HIERARCHY
ROOT Bip001_Pelvis
{
  OFFSET 33.2923 95.8902 -28.781
  CHANNELS 6 Xposition Yposition Zposition Zrotation Xrotation Yrotation
  JOINT Bip001_Spine
  {
    OFFSET 1.4188e-005 10.2191 -0.0116013
    CHANNELS 3 Zrotation Xrotation Yrotation
    JOINT Bip001_L_Thigh
    {
      OFFSET 11.0458 -10.2192 0.0116197
      CHANNELS 3 Zrotation Xrotation Yrotation
      JOINT Bip001_L_Calf
      {
        OFFSET -0.707118 -44.0221 0.360014
        CHANNELS 3 Zrotation Xrotation Yrotation
        JOINT Bip001_L_Foot
        {
          OFFSET -0.651902 -40.5938 -3.56146
          CHANNELS 3 Zrotation Xrotation Yrotation
          JOINT Bip001_L_Toe0
          {
            OFFSET 0.0530839 -10.2181 13.1504
            CHANNELS 3 Zrotation Xrotation Yrotation
            End Site
            {
              OFFSET -1.02532e-005 0 7.55606
            }
          }
        }
      }
    }
    JOINT Bip001_R_Thigh
    {
      OFFSET -11.0458 -10.2191 0.0115893
      CHANNELS 3 Zrotation Xrotation Yrotation
      JOINT Bip001_R_Calf
      {
        OFFSET 0.706994 -44.0221 0.35984
        CHANNELS 3 Zrotation Xrotation Yrotation
        JOINT Bip001_R_Foot
        {
          OFFSET 0.651786 -40.5938 -3.5613
          CHANNELS 3 Zrotation Xrotation Yrotation
          JOINT Bip001_R_Toe0
          {
            OFFSET -0.0531479 -10.2181 13.1504
            CHANNELS 3 Zrotation Xrotation Yrotation
            End Site
            {
              OFFSET -1.02894e-005 0 7.55606
            }
          }
        }
      }
    }
    JOINT Bip001_Spine1
    {
      OFFSET 1.87041e-005 14.5736 1.08638
      CHANNELS 3 Zrotation Xrotation Yrotation
      JOINT Bip001_Spine2
      {
        OFFSET 2.24614e-005 14.5058 -1.69078
        CHANNELS 3 Zrotation Xrotation Yrotation
        JOINT Bip001_Neck
        {
          OFFSET 2.20278e-005 15.3945 -0.489414
          CHANNELS 3 Zrotation Xrotation Yrotation
          JOINT Bip001_L_Clavicle
          {
            OFFSET 6.06036 -0.000579998 0.00836775
            CHANNELS 3 Zrotation Xrotation Yrotation
            JOINT Bip001_L_UpperArm
            {
              OFFSET 11.5509 -0.0600302 0.00193952
              CHANNELS 3 Zrotation Xrotation Yrotation
              JOINT Bip001_L_Forearm
              {
                OFFSET 25.9523 0.0806089 -2.15551
                CHANNELS 3 Zrotation Xrotation Yrotation
                JOINT Bip001_L_Hand
                {
                  OFFSET 32.2476 0.153767 1.63968
                  CHANNELS 3 Zrotation Xrotation Yrotation
                  JOINT Bip001_L_Finger0
                  {
                    OFFSET 6.04639 -2.20976 5.90322
                    CHANNELS 3 Zrotation Xrotation Yrotation
                    End Site
                    {
                      OFFSET 4.22376 -1.43895 0.606486
                    }
                  }
                  JOINT Bip001_L_Finger1
                  {
                    OFFSET 11.0826 -0.704819 -0.198153
                    CHANNELS 3 Zrotation Xrotation Yrotation
                    End Site
                    {
                      OFFSET 6.20028 -0.397518 -0.0787166
                    }
                  }
                }
              }
            }
          }
          JOINT Bip001_R_Clavicle
          {
            OFFSET -6.06036 -0.000563197 0.00835105
            CHANNELS 3 Zrotation Xrotation Yrotation
            JOINT Bip001_R_UpperArm
            {
              OFFSET -11.5509 -0.0599978 0.00190698
              CHANNELS 3 Zrotation Xrotation Yrotation
              JOINT Bip001_R_Forearm
              {
                OFFSET -25.9523 0.080682 -2.1559
                CHANNELS 3 Zrotation Xrotation Yrotation
                JOINT Bip001_R_Hand
                {
                  OFFSET -32.2476 0.153858 1.63991
                  CHANNELS 3 Zrotation Xrotation Yrotation
                  JOINT Bip001_R_Finger0
                  {
                    OFFSET -6.04641 -2.20974 5.90321
                    CHANNELS 3 Zrotation Xrotation Yrotation
                    End Site
                    {
                      OFFSET -4.22376 -1.43894 0.606474
                    }
                  }
                  JOINT Bip001_R_Finger1
                  {
                    OFFSET -11.0826 -0.704789 -0.198184
                    CHANNELS 3 Zrotation Xrotation Yrotation
                    End Site
                    {
                      OFFSET -6.20028 -0.397501 -0.0787338
                    }
                  }
                }
              }
            }
          }
          JOINT Bip001_Head
          {
            OFFSET 1.09673e-005 11.2744 2.05948
            CHANNELS 3 Zrotation Xrotation Yrotation
            End Site
            {
              OFFSET 2.89576e-005 20.8808 -2.77728e-005
            }
          }
        }
      }
    }
  }
}
MOTION
Frames:	8
Frame Time:	0.04
32.0366 95.8931 -28.3763 1.17335 -0.575246 3.31365 -0.262867 2.5569 0.0809994 4.6789 -3.01492 6.29423 -0.355354 6.16532 -13.4744 3.89595 -1.31142 -0.147865 -3.3335 -4.39354 5.257 -3.39078 -3.26879 -1.69482 0.487152 11.3072 -0.473655 -5.98318 -10.3307 0.888532 1.94504 -6.96899 2.43721 -0.535287 5.11349 0.173885 -0.529364 5.11349 0.173951 0.744084 -0.0787394 -4.89865 -24.2774 1.26767 -2.77997 -49.3576 38.1637 -1.68453 10.8784 1.64138 -25.5794 8.95944 0.921068 -1.88158 3.18055e-015 -3.18055e-015 -7.95139e-015 3.18055e-015 -9.54167e-015 -6.36111e-015 20.1505 8.39247 24.4701 49.9236 -24.4529 27.9241 -42.8285 -4.29949 90.4221 -50.6487 -0.246086 3.3374 -2.20695e-031 -3.18055e-015 -3.97569e-015 0 0 -3.18055e-015 -1.72255 11.2422 -3.96261 
32.0648 95.8984 -28.3057 1.36755 -0.86916 2.94282 -0.234012 2.58288 -0.0699126 4.4251 -2.38934 7.11446 -0.287523 5.72759 -13.808 3.73396 -1.24688 -0.14647 -3.37347 -4.33729 5.29753 -3.64945 -3.12349 -1.76947 0.434037 11.5324 -0.324003 -5.8595 -10.5178 1.282 1.93464 -6.93158 2.43641 -0.468763 5.166 -0.128944 -0.4673 5.166 -0.129053 0.182912 0.257769 -4.44644 -23.8175 1.05893 -2.86948 -50.2166 37.7706 -0.834877 10.9154 1.88374 -25.5487 8.68943 0.780676 -1.92423 0 0 -1.59028e-015 1.76556e-031 -6.36111e-015 1.59028e-015 20.0547 7.73354 24.1365 46.9871 -22.6204 27.4865 -43.8845 -7.31988 87.5756 -47.3208 0.81014 3.33863 3.18055e-015 3.18055e-015 -4.77083e-015 3.18055e-015 -3.18056e-015 -5.56597e-015 -1.89136 11.2405 -3.62792 
32.1025 95.9004 -28.3421 1.45859 -0.914305 2.24656 -0.238845 2.56648 -0.104746 4.25748 -2.12076 7.43186 -0.225809 5.52742 -13.4005 3.61221 -1.2878 -0.14206 -3.4655 -4.21648 5.35477 -3.82664 -3.37499 -1.47427 0.479889 11.8641 -0.102918 -5.80286 -10.5896 1.47647 1.91432 -6.86577 2.41334 -0.473618 5.13335 -0.198195 -0.473477 5.13338 -0.19865 -0.555188 -0.0600739 -4.03812 -23.445 1.46306 -2.74366 -50.501 39.0392 0.0167661 10.8511 0.919778 -25.5514 8.33533 0.549482 -1.66304 -3.18055e-015 -9.54166e-015 1.59028e-015 -6.36111e-015 -9.54167e-015 -0 20.8433 7.97682 23.7561 45.0814 -23.1659 26.2592 -42.2553 -8.58467 85.3597 -45.8705 0.727745 5.22845 -0 0 4.77083e-015 8.82782e-032 -3.18056e-015 1.59028e-015 -1.45855 11.8704 -3.57544 
32.14 95.9124 -28.3585 1.60116 -0.968429 1.47157 -0.302653 2.58681 -0.052896 4.09338 -1.84638 7.80798 -0.0779231 5.32577 -12.8687 2.78657 -1.77728 -0.0962619 -3.70446 -3.70384 5.55153 -4.00724 -3.67631 -1.32708 0.497381 12.2474 0.165851 -5.68608 -10.691 1.79643 1.89247 -6.78523 2.37511 -0.603836 5.17385 -0.0922362 -0.603839 5.17387 -0.0922367 -0.96971 -0.903039 -3.81885 -23.0247 2.30169 -2.44526 -50.5114 40.4662 0.120542 10.7858 -0.157146 -25.077 8.24209 0.645819 -1.33506 -6.36111e-015 -1.27222e-014 1.59028e-015 -3.18055e-015 -9.54167e-015 -1.59028e-015 21.7001 8.81428 23.1913 47.0043 -25.6902 26.8838 -42.9083 -6.30028 86.9068 -41.3513 0.945172 5.08347 -7.06225e-031 6.36111e-015 6.36111e-015 3.18055e-015 4.77083e-015 1.59028e-015 -0.810892 12.7795 -3.66454 
32.1255 95.9248 -28.3788 1.53266 -0.98967 1.0493 -0.314404 2.61237 0.0187866 4.14522 -1.81345 8.00268 -0.00820829 5.37384 -12.6245 2.64321 -1.92151 -0.0887001 -3.71372 -3.58216 5.56472 -3.96388 -3.73313 -1.48093 0.47123 12.1661 0.32135 -5.54632 -10.6582 2.12494 1.86737 -6.69184 2.32987 -0.630925 5.2246 0.0509311 -0.630908 5.22461 0.0514965 -0.407853 -0.966379 -4.04225 -23.4903 2.32314 -2.53145 -50.3411 40.4536 -0.389781 10.9146 0.385465 -24.2928 8.06423 0.910477 -1.28851 -3.18055e-015 3.18055e-015 -0 -6.36111e-015 -3.18056e-015 1.59028e-015 22.0002 8.93675 22.5342 46.7108 -26.6971 26.8162 -41.9132 -5.94399 86.1716 -38.8621 3.45885 4.2227 4.41391e-032 -3.18055e-015 7.95139e-016 6.36111e-015 -4.77083e-015 -7.95139e-016 -1.0759 12.3746 -3.63739 
31.9963 95.9202 -28.5432 1.16568 -0.691361 1.19425 -0.224278 2.56715 -0.00767188 4.57812 -2.52288 7.1239 -0.188903 6.01028 -11.9895 3.00085 -1.86484 -0.0997091 -3.6512 -3.83554 5.52974 -3.60092 -3.92146 -1.56835 0.456692 11.8329 0.259302 -5.51722 -10.4295 2.17354 1.84471 -6.60561 2.28578 -0.447572 5.1343 -0.00158699 -0.447921 5.13429 -0.00383874 -0.153076 -1.05117 -4.22945 -23.9597 2.37885 -2.55572 -50.5322 40.0138 -0.60152 11.6301 1.13686 -23.6142 7.53575 1.01407 -1.61337 8.82781e-032 -3.18055e-015 1.59028e-015 3.18055e-015 0 -0 22.6995 9.05158 21.7052 45.3322 -26.7167 24.9431 -40.9575 -5.67498 85.7393 -39.9177 4.2772 3.49898 -3.18055e-015 -1.59028e-015 -7.95139e-016 -6.36111e-015 7.95139e-016 2.78299e-015 -1.16925 12.3793 -3.71214 
31.997 95.916 -28.4915 1.30864 -0.87278 0.802406 -0.267983 2.61608 0.0333584 4.40495 -2.12402 7.53452 -0.0694082 5.67305 -12.0909 2.91206 -1.81347 -0.0996954 -3.65448 -3.82043 5.51328 -3.75497 -3.93367 -1.55826 0.485357 12.0787 0.240324 -5.4346 -10.6167 2.49261 1.84215 -6.58002 2.2723 -0.538947 5.23199 0.078058 -0.538695 5.23199 0.0787827 -0.0766896 -1.31667 -4.28873 -24.0449 2.55671 -2.28448 -50.1496 39.4532 -1.15404 11.3676 1.63516 -23.7764 7.57415 1.03276 -1.67347 -6.36111e-015 -6.36111e-015 4.77083e-015 -6.36111e-015 0 4.77083e-015 23.6174 9.38247 20.9473 43.757 -26.2949 21.8067 -40.8583 -5.04519 87.1666 -41.1746 5.04058 1.69583 -3.18055e-015 1.59028e-015 -3.57812e-015 -3.18055e-015 3.18056e-015 -1.59028e-015 -1.08033 12.6756 -3.77229 
31.9608 95.9147 -28.4484 1.32095 -0.967248 0.638601 -0.302823 2.66526 0.0516308 4.40554 -1.93968 7.90761 0.007688 5.50251 -12.3657 2.89565 -1.75764 -0.100022 -3.64914 -3.85384 5.51288 -3.72003 -3.87397 -1.42167 0.51464 12.0514 0.272629 -5.45053 -10.642 2.48083 1.83647 -6.53091 2.2391 -0.609029 5.33023 0.117589 -0.609035 5.33023 0.117579 0.0414228 -1.45927 -4.46698 -24.1326 2.5476 -1.87941 -50.4514 40.6502 -0.965704 12.2114 0.349372 -24.2534 7.39997 0.923294 -1.79721 8.82781e-032 -3.18055e-015 1.59028e-015 -0 -3.18056e-015 -0 24.7814 9.72346 20.3988 40.7803 -25.1841 17.0187 -39.397 -5.11639 87.6283 -41.6494 5.59931 1.49679 -3.18055e-015 2.38542e-015 2.18663e-015 0 7.95139e-016 -0 -1.05856 12.6948 -3.91528 
